<?xml version="1.0" encoding="UTF-8"?>
<svg id="_レイヤー_2" data-name=" レイヤー 2" xmlns="http://www.w3.org/2000/svg" version="1.1" viewBox="0 0 628.6 118.7">
  <defs>
    <style>
      .cls-1 {
        fill: #fff;
        stroke-width: 0px;
      }
    </style>
  </defs>
  <g id="_レイヤー_1-2" data-name=" レイヤー 1-2">
    <path class="cls-1" d="M175.8,71.5v46.2h-13v-42.6c0-18.2-7.7-24.3-19-24.3s-24.5,10.4-24.5,28v38.9h-13V39.8h13v13.6h.2c6.6-9.3,16.8-14.6,28.3-14.6,16.8,0,28,10.4,28,32.6"/>
    <path class="cls-1" d="M285.4,39.8v77.9h-12.5v-12.3h-.2c-6.2,8.3-15.8,13.3-27.2,13.3-21.6,0-38.2-15.5-38.2-39.4s16-40.5,38.1-40.5,20.3,4.5,26.9,12.6h.2v-11.7h13ZM273,79.4c0-16-11-28.5-26.1-28.5s-26.4,11.2-26.4,28.5,10.4,27.5,26.2,27.5,26.2-11,26.2-27.5"/>
    <path class="cls-1" d="M400.3,79.4c0,23.8-16.8,39.4-38.2,39.4s-21-5-27.2-13.3h-.3v12.3h-12.3V0h13v51.5h.2c6.6-8.2,16.2-12.6,26.9-12.6,21.9,0,38.1,17.4,38.1,40.5M387,79.4c0-17.3-11.5-28.5-26.4-28.5s-25.9,12.5-25.9,28.5,12.2,27.5,26.1,27.5,26.2-11.8,26.2-27.5"/>
    <rect class="cls-1" x="434.1" y="0" width="13" height="117.8"/>
    <path class="cls-1" d="M554.1,82.9h-60c1.8,14.6,12,24,26.1,24s17.1-4.5,21.9-10.6l9.1,7.8c-6.7,8.6-17.3,14.6-31.5,14.6-22.1,0-38.7-16.2-38.7-39.8s16.2-40,37.3-40,36.2,16.3,36.2,38.7-.3,4.8-.3,5.3M494.6,72.2h47c-2.1-12.8-10.2-21.3-22.7-21.3s-21.9,8-24.3,21.3"/>
    <path class="cls-1" d="M628.6,39v14.4c-1.8-.2-3.8-.3-5.1-.3-14.7,0-23.7,11.4-23.7,27v37.6h-13V39.8h13v13.8h.2c5.8-9.3,14.9-14.7,25.4-14.7s2.4,0,3.2.2"/>
    <polygon class="cls-1" points="0 4.2 0 117.8 73 117.8 73 105 14.1 105 14.1 67.7 59.7 67.7 59.7 54.9 14.1 54.9 14.1 17 69.6 17 69.6 4.2 0 4.2"/>
  </g>
</svg>