<?xml version="1.0" encoding="UTF-8"?><svg id="_レイヤー_2" xmlns="http://www.w3.org/2000/svg" viewBox="0 0 628.64 118.72"><defs><style>.cls-1{fill:#000;stroke-width:0px;}</style></defs><g id="_レイヤー_1-2"><path class="cls-1" d="M175.84,71.52v46.24h-12.96v-42.56c0-18.24-7.68-24.32-19.04-24.32-14.72,0-24.48,10.4-24.48,28v38.88h-12.96V39.84h12.96v13.6h.16c6.56-9.28,16.8-14.56,28.32-14.56,16.8,0,28,10.4,28,32.64"/><path class="cls-1" d="M285.44,39.84v77.92h-12.48v-12.32h-.16c-6.24,8.32-15.84,13.28-27.2,13.28-21.6,0-38.24-15.52-38.24-39.36s16-40.48,38.08-40.48c10.72,0,20.32,4.48,26.88,12.64h.16v-11.68h12.96ZM272.96,79.36c0-16-11.04-28.48-26.08-28.48s-26.4,11.2-26.4,28.48c0,15.68,10.4,27.52,26.24,27.52,14.08,0,26.24-11.04,26.24-27.52"/><path class="cls-1" d="M400.32,79.36c0,23.84-16.8,39.36-38.24,39.36-11.36,0-20.96-4.96-27.2-13.28h-.32v12.32h-12.32V0h12.96v51.52h.16c6.56-8.16,16.16-12.64,26.88-12.64,21.92,0,38.08,17.44,38.08,40.48M387.04,79.36c0-17.28-11.52-28.48-26.4-28.48s-25.92,12.48-25.92,28.48,12.16,27.52,26.08,27.52c15.84,0,26.24-11.84,26.24-27.52"/><rect class="cls-1" x="434.08" width="12.96" height="117.76"/><path class="cls-1" d="M554.08,82.88h-60c1.76,14.56,12,24,26.08,24,9.76,0,17.12-4.48,21.92-10.56l9.12,7.84c-6.72,8.64-17.28,14.56-31.52,14.56-22.08,0-38.72-16.16-38.72-39.84s16.16-40,37.28-40,36.16,16.32,36.16,38.72c0,2.08-.32,4.8-.32,5.28M494.56,72.16h47.04c-2.08-12.8-10.24-21.28-22.72-21.28s-21.92,8-24.32,21.28"/><path class="cls-1" d="M628.64,39.04v14.4c-1.76-.16-3.84-.32-5.12-.32-14.72,0-23.68,11.36-23.68,27.04v37.6h-12.96V39.84h12.96v13.76h.16c5.76-9.28,14.88-14.72,25.44-14.72,1.28,0,2.4,0,3.2.16"/><polygon class="cls-1" points="0 4.16 0 117.76 72.96 117.76 72.96 104.96 14.08 104.96 14.08 67.68 59.68 67.68 59.68 54.88 14.08 54.88 14.08 16.96 69.6 16.96 69.6 4.16 0 4.16"/></g></svg>