<svg version="1.1" id="Layer_1" xmlns="http://www.w3.org/2000/svg" xmlns:xlink="http://www.w3.org/1999/xlink" x="0px" y="0px"
	 width="100%" viewBox="0 0 1024 832" enable-background="new 0 0 1024 832" xml:space="preserve">
<path fill="#000000" opacity="1.000000" stroke="none" 
	d="
M176.907120,501.000000 
	C176.896088,484.835724 176.878036,469.171478 176.876770,453.507202 
	C176.876007,444.122101 178.313995,442.655823 187.479233,442.643951 
	C192.645081,442.637268 197.812790,442.738281 202.976273,442.629639 
	C207.878555,442.526520 210.432510,444.875366 210.833084,449.663696 
	C210.985489,451.485535 211.032959,453.321075 211.030472,455.150208 
	C210.991852,483.644104 210.966766,512.138123 210.846420,540.631714 
	C210.832382,543.953308 212.151825,545.656067 215.421509,545.843323 
	C217.249115,545.947998 219.080963,546.034546 220.910889,546.034668 
	C290.733521,546.040100 360.556183,546.032593 430.378815,546.032471 
	C441.271362,546.032471 443.068390,547.857849 443.110962,558.895691 
	C443.123810,562.228394 443.163544,565.561951 443.110016,568.893799 
	C442.993744,576.132507 439.792633,579.523071 432.532013,580.053162 
	C430.542145,580.198364 428.534546,580.113831 426.535065,580.112610 
	C357.212555,580.070129 287.890045,580.022888 218.567520,579.983154 
	C211.634583,579.979187 211.019470,580.574829 211.006195,587.263977 
	C210.992615,594.095703 210.976913,600.927856 211.036270,607.759155 
	C211.093231,614.315186 211.585678,614.759827 218.254395,614.760742 
	C295.075989,614.771118 371.897552,614.783142 448.719147,614.786072 
	C568.200867,614.790710 687.682678,614.752869 807.164185,614.887085 
	C813.651733,614.894348 819.247742,613.475098 824.398010,609.637817 
	C831.476013,604.364258 839.792358,602.709534 848.332703,601.992004 
	C852.387451,601.651245 856.528809,605.209229 857.143616,609.333313 
	C857.387329,610.968140 857.295410,612.658386 857.295532,614.323364 
	C857.301086,670.314758 857.300354,726.306213 857.297607,782.297607 
	C857.297058,793.345154 854.483459,796.145569 843.408936,796.146484 
	C841.409241,796.146606 839.409424,796.152710 837.409851,796.133484 
	C828.182556,796.044739 825.174500,793.337891 824.213440,784.228882 
	C824.108826,783.237976 824.110413,782.230713 824.132568,781.232544 
	C825.020935,741.251892 825.070618,701.271423 824.125427,661.290894 
	C824.113647,660.791443 824.124512,660.290833 824.140564,659.791321 
	C824.521301,647.976135 824.521729,647.986389 812.453369,647.985718 
	C614.983582,647.975708 417.513794,647.963013 220.044022,647.950378 
	C211.815887,647.949829 211.027161,648.751099 211.029114,657.196411 
	C211.038925,699.523132 211.052338,741.849854 211.063599,784.176575 
	C211.066193,793.950195 208.827728,796.231628 198.941971,796.121521 
	C193.957138,796.066040 188.964462,796.499634 183.981003,795.676270 
	C179.212631,794.888367 177.192169,791.962830 176.903839,787.452148 
	C176.840164,786.456238 176.888245,785.453003 176.888306,784.453186 
	C176.894363,690.135437 176.900757,595.817749 176.907120,501.000000 
z"/>
<path fill="#000000" opacity="1.000000" stroke="none" 
	d="
M920.915771,247.001328 
	C945.780212,259.470428 970.296997,271.800598 994.836853,284.084747 
	C1002.154053,287.747620 1003.234802,291.017639 999.456909,298.434631 
	C997.417969,302.437592 995.540649,306.523193 993.484802,310.517181 
	C990.407410,316.496124 987.236816,317.675110 981.363037,314.767334 
	C967.049438,307.681458 952.804504,300.457031 938.517761,293.316864 
	C904.878784,276.504913 871.228638,259.715363 837.588440,242.905914 
	C804.682129,226.463165 771.790039,209.992004 738.878235,193.560318 
	C695.243896,171.775299 651.595337,150.018951 607.955200,128.245605 
	C577.875549,113.238007 547.770447,98.280693 517.756226,83.143257 
	C513.591370,81.042747 510.048462,81.128197 505.981659,83.225906 
	C470.784576,101.381111 435.540833,119.446091 400.287720,137.492447 
	C369.323151,153.343445 338.314911,169.109070 307.350983,184.961319 
	C272.091797,203.012543 236.867752,221.132401 201.614563,239.195358 
	C172.291809,254.219711 142.929596,269.167084 113.621986,284.220917 
	C94.532364,294.026245 75.478523,303.902435 56.470955,313.865753 
	C48.497738,318.045166 45.107983,317.043793 41.069157,308.891357 
	C39.445316,305.613586 37.729450,302.375977 35.923340,299.195099 
	C32.020611,292.321686 33.266994,288.311249 40.378487,284.665527 
	C66.730545,271.155945 93.048866,257.580536 119.403885,244.076767 
	C148.578735,229.128189 177.807098,214.283890 206.962860,199.298264 
	C244.703720,179.900024 282.379761,160.375702 320.115601,140.967728 
	C339.207520,131.148560 358.392334,121.510132 377.494873,111.711449 
	C409.478699,95.305283 441.424072,78.824165 473.398804,62.400272 
	C484.647064,56.622581 495.964203,50.978268 507.182068,45.142700 
	C509.978790,43.687832 512.357239,43.742371 515.176697,45.157124 
	C537.190613,56.203186 559.141663,67.387100 581.359619,78.010651 
	C603.248962,88.477081 624.828247,99.547592 646.528809,110.383446 
	C670.464478,122.335342 694.460022,134.167297 718.388733,146.133057 
	C751.831299,162.856277 785.202271,179.722794 818.667114,196.401169 
	C848.273132,211.156326 877.966248,225.736572 907.619080,240.397812 
	C911.943665,242.536026 916.257935,244.695282 920.915771,247.001328 
z"/>
<path fill="#000000" opacity="1.000000" stroke="none" 
	d="
M654.000000,445.260315 
	C611.169250,445.199219 568.838501,445.148499 526.507812,445.047180 
	C524.196106,445.041626 521.789917,444.945221 519.594299,444.312744 
	C515.165588,443.037109 512.528320,440.160767 512.658325,435.203400 
	C512.767456,431.039703 512.951050,426.849274 512.621399,422.708893 
	C511.967255,414.491760 516.764221,410.887299 524.570068,411.124451 
	C563.219055,412.298584 601.874268,411.469940 640.525452,411.663666 
	C675.689087,411.839935 710.862976,411.291168 746.015015,411.965576 
	C767.312256,412.374176 788.399048,415.526520 807.584473,425.804169 
	C825.000427,435.133972 838.567749,448.150421 847.076294,466.491699 
	C856.314697,486.406311 857.767151,507.429413 857.933167,528.765076 
	C857.999146,537.250305 857.546631,545.740601 857.280640,554.227051 
	C857.082458,560.552368 854.331604,563.239990 848.008850,563.296570 
	C842.842773,563.342834 837.674805,563.365051 832.509644,563.280884 
	C826.699829,563.186157 823.849915,560.509399 823.911011,554.672852 
	C824.027710,543.524597 824.816772,532.371521 824.595642,521.235046 
	C824.411438,511.960236 824.144531,502.593658 821.565369,493.540009 
	C814.874512,470.053375 799.265625,455.650208 776.054932,449.128662 
	C761.798340,445.122986 747.106628,445.233002 732.493652,445.158234 
	C706.496582,445.025269 680.497986,445.208771 654.000000,445.260315 
z"/>
<path fill="#000000" opacity="1.000000" stroke="none" 
	d="
M372.820557,491.984741 
	C357.412262,494.658112 342.909149,492.811829 329.043915,486.712219 
	C308.166779,477.527893 294.410126,461.469086 287.492981,440.136230 
	C280.469086,418.474030 283.340210,397.441681 295.329285,377.902893 
	C305.913483,360.653595 321.191711,349.307861 340.656494,344.379517 
	C354.468170,340.882507 368.471954,341.204132 382.418762,345.480652 
	C399.040894,350.577454 411.914520,360.564331 421.730347,374.420380 
	C429.604370,385.535461 434.044891,398.112976 435.132172,411.925446 
	C438.245514,451.477142 409.625763,485.630554 372.820557,491.984741 
M346.719025,457.807281 
	C353.750305,460.819580 361.330536,460.784241 368.309021,459.175354 
	C382.069580,456.002869 392.546021,447.876617 398.479279,434.646851 
	C403.508270,423.433289 403.875183,411.715759 398.665558,400.900116 
	C390.823822,384.619995 377.118073,374.167053 355.113953,375.947479 
	C333.945435,377.660309 319.021851,395.500153 317.450378,415.246002 
	C316.006073,433.393890 327.773499,451.245331 346.719025,457.807281 
z"/>
</svg>