<?xml version="1.0" encoding="UTF-8"?>
<svg id="Layer_1" data-name="Layer 1" xmlns="http://www.w3.org/2000/svg" version="1.1" viewBox="0 0 841.9 832">
  <defs>
    <style>
      .cls-1 {
        fill: #fff;
        stroke-width: 0px;
      }
    </style>
  </defs>
  <path class="cls-1" d="M145.4,485.9c0-13.3,0-26.2,0-39,0-7.7,1.2-8.9,8.7-8.9,4.2,0,8.5,0,12.7,0,4,0,6.1,1.8,6.5,5.8.1,1.5.2,3,.2,4.5,0,23.4,0,46.9-.2,70.3,0,2.7,1.1,4.1,3.8,4.3,1.5,0,3,.2,4.5.2,57.4,0,114.8,0,172.2,0,9,0,10.4,1.5,10.5,10.6,0,2.7,0,5.5,0,8.2,0,6-2.7,8.7-8.7,9.2-1.6.1-3.3,0-4.9,0-57,0-114,0-171-.1-5.7,0-6.2.5-6.2,6,0,5.6,0,11.2,0,16.9,0,5.4.5,5.8,5.9,5.8,63.2,0,126.3,0,189.5,0,98.2,0,196.5,0,294.7,0,5.3,0,9.9-1.2,14.2-4.3,5.8-4.3,12.7-5.7,19.7-6.3,3.3-.3,6.7,2.6,7.2,6,.2,1.3.1,2.7.1,4.1,0,46,0,92.1,0,138.1,0,9.1-2.3,11.4-11.4,11.4-1.6,0-3.3,0-4.9,0-7.6,0-10.1-2.3-10.8-9.8,0-.8,0-1.6,0-2.5.7-32.9.8-65.7,0-98.6,0-.4,0-.8,0-1.2q.3-9.7-9.6-9.7c-162.4,0-324.7,0-487.1,0-6.8,0-7.4.7-7.4,7.6,0,34.8,0,69.6,0,104.4,0,8-1.8,9.9-10,9.8-4.1,0-8.2.3-12.3-.4-3.9-.6-5.6-3.1-5.8-6.8,0-.8,0-1.6,0-2.5,0-77.5,0-155.1,0-233Z"/>
  <path class="cls-1" d="M757.1,277.1c20.4,10.3,40.6,20.4,60.8,30.5,6,3,6.9,5.7,3.8,11.8-1.7,3.3-3.2,6.7-4.9,9.9-2.5,4.9-5.1,5.9-10,3.5-11.8-5.8-23.5-11.8-35.2-17.6-27.7-13.8-55.3-27.6-83-41.4-27.1-13.5-54.1-27.1-81.2-40.6-35.9-17.9-71.8-35.8-107.6-53.7-24.7-12.3-49.5-24.6-74.2-37.1-3.4-1.7-6.3-1.7-9.7,0-28.9,14.9-57.9,29.8-86.9,44.6-25.5,13-51,26-76.4,39-29,14.8-57.9,29.7-86.9,44.6-24.1,12.4-48.2,24.6-72.3,37-15.7,8.1-31.4,16.2-47,24.4-6.6,3.4-9.3,2.6-12.7-4.1-1.3-2.7-2.7-5.4-4.2-8-3.2-5.7-2.2-8.9,3.7-11.9,21.7-11.1,43.3-22.3,65-33.4,24-12.3,48-24.5,72-36.8,31-15.9,62-32,93-48,15.7-8.1,31.5-16,47.2-24.1,26.3-13.5,52.6-27,78.8-40.5,9.2-4.8,18.6-9.4,27.8-14.2,2.3-1.2,4.3-1.2,6.6,0,18.1,9.1,36.1,18.3,54.4,27,18,8.6,35.7,17.7,53.6,26.6,19.7,9.8,39.4,19.6,59.1,29.4,27.5,13.7,54.9,27.6,82.4,41.3,24.3,12.1,48.8,24.1,73.1,36.2,3.6,1.8,7.1,3.5,10.9,5.4Z"/>
  <path class="cls-1" d="M537.7,440.1c-35.2,0-70,0-104.8-.2-1.9,0-3.9,0-5.7-.6-3.6-1-5.8-3.4-5.7-7.5,0-3.4.2-6.9,0-10.3-.5-6.8,3.4-9.7,9.8-9.5,31.8,1,63.6.3,95.3.4,28.9.1,57.8-.3,86.7.2,17.5.3,34.8,2.9,50.6,11.4,14.3,7.7,25.5,18.4,32.5,33.5,7.6,16.4,8.8,33.7,8.9,51.2,0,7-.3,14-.5,20.9-.2,5.2-2.4,7.4-7.6,7.5-4.2,0-8.5,0-12.7,0-4.8,0-7.1-2.3-7.1-7.1,0-9.2.7-18.3.6-27.5-.2-7.6-.4-15.3-2.5-22.8-5.5-19.3-18.3-31.2-37.4-36.5-11.7-3.3-23.8-3.2-35.8-3.3-21.4-.1-42.7,0-64.5,0Z"/>
  <path class="cls-1" d="M306.5,478.5c-12.7,2.2-24.6.7-36-4.3-17.2-7.6-28.5-20.8-34.2-38.3-5.8-17.8-3.4-35.1,6.4-51.2,8.7-14.2,21.3-23.5,37.3-27.6,11.4-2.9,22.9-2.6,34.3.9,13.7,4.2,24.3,12.4,32.3,23.8,6.5,9.1,10.1,19.5,11,30.8,2.6,32.5-21,60.6-51.2,65.8M285.1,450.4c5.8,2.5,12,2.4,17.8,1.1,11.3-2.6,19.9-9.3,24.8-20.2,4.1-9.2,4.4-18.9.2-27.7-6.4-13.4-17.7-22-35.8-20.5-17.4,1.4-29.7,16.1-31,32.3-1.2,14.9,8.5,29.6,24.1,35Z"/>
</svg>