<?xml version="1.0" encoding="UTF-8"?><svg id="_レイヤー_2" xmlns="http://www.w3.org/2000/svg" viewBox="0 0 340.16 67.7"><defs><style>.cls-1{fill:#fff;}</style></defs><g id="_レイヤー_1-2"><path class="cls-1" d="M79.81,21.62c-5.87,0-11.22,2.4-15.01,6.65v-3.52c0-1.43-1.16-2.6-2.6-2.6h-3.69c-1.43,0-2.59,1.16-2.59,2.6v39.81c0,1.43,1.16,2.59,2.59,2.59h3.69c1.43,0,2.6-1.16,2.6-2.59v-19.86c0-9.09,4.9-14.74,12.78-14.74,4.19,0,9.76,1.32,9.76,12.69v21.91c0,1.43,1.16,2.59,2.59,2.59h3.69c1.43,0,2.6-1.16,2.6-2.59v-23.96c0-12.07-5.98-18.99-16.41-18.99Z"/><path class="cls-1" d="M195.9,21.62c-5.53,0-10.5,2.04-14.2,5.78V2.6c0-1.43-1.16-2.6-2.59-2.6h-3.69c-1.43,0-2.59,1.16-2.59,2.6v61.97c0,1.43,1.16,2.59,2.59,2.59h3.33c1.43,0,2.59-1.16,2.59-2.59v-3c3.68,3.97,8.74,6.13,14.47,6.13,12.81,0,22.1-9.56,22.1-22.72s-9.46-23.35-22.01-23.35ZM195.09,59.44c-7.79,0-13.67-6.22-13.67-14.47s5.84-15,13.58-15c8.15,0,13.85,6.17,13.85,15s-5.66,14.47-13.76,14.47Z"/><path class="cls-1" d="M236.03,0h3.69c1.43,0,2.6,1.16,2.6,2.6v61.97c0,1.43-1.16,2.59-2.59,2.59h-3.69c-1.43,0-2.59-1.16-2.59-2.59V2.6c0-1.43,1.16-2.6,2.6-2.6Z"/><path class="cls-1" d="M279.5,21.62c-12.5,0-21.57,9.71-21.57,23.08s9.41,22.99,22.37,22.99c6.88,0,12.75-2.42,16.98-7,.47-.51.71-1.17.67-1.87-.04-.7-.37-1.37-.91-1.83l-2.43-2.09c-1.04-.89-2.6-.83-3.54.15-1.93,2-5.33,4.38-10.51,4.38-6.64,0-11.74-4.05-13.31-10.57-.09-.36.07-.63.17-.76.18-.23.45-.36.74-.36h29.63c1.36,0,2.5-1.06,2.59-2.42.04-.54.05-.98.05-1.35,0-13.17-8.61-22.37-20.95-22.37ZM291.03,39.77c-.1.14-.33.36-.73.36h-21.72c-.3,0-.58-.14-.76-.39-.17-.23-.22-.52-.13-.78,1.82-5.63,6.37-8.99,12.17-8.99s9.68,3.26,11.32,8.95c.09.3.03.61-.15.85Z"/><path class="cls-1" d="M21.57,21.62C9.07,21.62,0,31.33,0,44.7s9.41,22.99,22.37,22.99c6.88,0,12.75-2.42,16.98-7,.47-.51.71-1.17.67-1.87-.04-.7-.37-1.37-.91-1.83l-2.43-2.09c-1.04-.89-2.6-.83-3.54.15-1.93,2-5.33,4.38-10.51,4.38-6.64,0-11.74-4.05-13.31-10.57-.09-.36.07-.63.17-.76.18-.23.45-.36.74-.36h29.63c1.36,0,2.5-1.06,2.59-2.42.04-.54.05-.98.05-1.35,0-13.17-8.61-22.37-20.95-22.37ZM33.1,39.77c-.1.14-.33.36-.73.36H10.65c-.3,0-.58-.14-.76-.39-.17-.23-.22-.52-.13-.78,1.82-5.63,6.37-8.99,12.17-8.99s9.68,3.26,11.32,8.95c.09.3.03.61-.15.85Z"/><path class="cls-1" d="M337.54,21.62c-5.25,0-10.02,2.35-13.4,6.53v-3.4c0-1.43-1.16-2.6-2.59-2.6h-3.69c-1.43,0-2.59,1.16-2.59,2.6v39.81c0,1.43,1.16,2.59,2.59,2.59h3.69c1.43,0,2.59-1.16,2.59-2.59v-19.15c0-8.63,4.84-14.2,12.34-14.2.26,0,.58.01.93.03.72.04,1.42-.22,1.94-.71.52-.49.81-1.16.81-1.88v-4.44c0-1.43-1.16-2.6-2.61-2.6Z"/><path class="cls-1" d="M153,22.16h-3.69c-1.43,0-2.6,1.16-2.6,2.6v2.65c-3.71-3.74-8.68-5.78-14.2-5.78-12.55,0-22.01,10.04-22.01,23.35s9.09,22.72,22.1,22.72c5.68,0,10.71-2.13,14.38-6.04v2.91c0,1.43,1.16,2.59,2.6,2.59h3.42c1.43,0,2.59-1.16,2.59-2.59V24.75c0-1.43-1.16-2.6-2.59-2.6ZM133.23,59.44c-8.1,0-13.76-5.95-13.76-14.47s5.82-15,13.85-15,13.67,6.45,13.67,15-5.92,14.47-13.76,14.47Z"/></g></svg>